<?xml version="1.0" encoding="utf-8"?>
<!-- Generator: Adobe Illustrator 22.1.0, SVG Export Plug-In . SVG Version: 6.00 Build 0)  -->
<svg version="1.1" id="Layer_1" xmlns="http://www.w3.org/2000/svg" xmlns:xlink="http://www.w3.org/1999/xlink" x="0px" y="0px"
	 viewBox="0 0 24 24" style="enable-background:new 0 0 24 24;" xml:space="preserve">
<style type="text/css">
	.st0{display:none;fill:none;}
	.st1{display:none;fill:#00CFFF;}
	.st2{display:none;}
	.st3{fill:#808080;}
	.st4{display:none;fill:#808080;}
</style>
<path id="bg" class="st0" d="M0,0h24v24H0V0z"/>
<path id="vimeo_x5F_hover" class="st1" d="M22,7.4c-0.1,1.9-1.5,4.6-4.1,8c-2.7,3.6-5,5.3-6.9,5.3c-1.1,0-2.1-1.1-2.9-3.2
	c-0.6-2-1.1-3.9-1.6-5.9c-0.7-2.2-1.3-3.3-2-3.3c-0.1,0-0.7,0.3-1.6,0.9L2,8.1c1-0.9,2-1.7,2.9-2.6c1.3-1.1,2.3-1.7,3-1.8
	c1.6-0.2,2.5,0.9,2.9,3.2c0.4,2.5,0.7,4,0.8,4.6c0.4,2,0.9,3,1.5,3c0.4,0,1.1-0.6,1.9-2c0.8-1.3,1.3-2.3,1.4-3
	c0.1-1.1-0.3-1.7-1.4-1.7c-0.5,0-1,0.1-1.5,0.3c1-3.2,2.9-4.8,5.6-4.7C21.1,3.5,22.1,4.8,22,7.4z"/>
<path id="vimeo" class="st2" d="M22,7.4c-0.1,1.9-1.5,4.6-4.1,8c-2.7,3.6-5,5.3-6.9,5.3c-1.1,0-2.1-1.1-2.9-3.2
	c-0.6-2-1.1-3.9-1.6-5.9c-0.7-2.2-1.3-3.3-2-3.3c-0.1,0-0.7,0.3-1.6,0.9L2,8.1c1-0.9,2-1.7,2.9-2.6c1.3-1.1,2.3-1.7,3-1.8
	c1.6-0.2,2.5,0.9,2.9,3.2c0.4,2.5,0.7,4,0.8,4.6c0.4,2,0.9,3,1.5,3c0.4,0,1.1-0.6,1.9-2c0.8-1.3,1.3-2.3,1.4-3
	c0.1-1.1-0.3-1.7-1.4-1.7c-0.5,0-1,0.1-1.5,0.3c1-3.2,2.9-4.8,5.6-4.7C21.1,3.5,22.1,4.8,22,7.4z"/>
<path id="youtube_x5F_hover_1_" class="st1" d="M10,16.5v-9l6,4.5 M20,4.4C19.4,4.2,15.7,4,12,4S4.6,4.2,4,4.4c-1.6,0.5-2,4-2,7.6
	s0.4,7.1,2,7.6c0.6,0.2,4.3,0.4,8,0.4s7.4-0.2,8-0.4c1.6-0.5,2-4,2-7.6S21.6,4.9,20,4.4z"/>
<path id="youtube" class="st2" d="M10,16.5v-9l6,4.5 M20,4.4C19.4,4.2,15.7,4,12,4S4.6,4.2,4,4.4c-1.6,0.5-2,4-2,7.6s0.4,7.1,2,7.6
	c0.6,0.2,4.3,0.4,8,0.4s7.4-0.2,8-0.4c1.6-0.5,2-4,2-7.6S21.6,4.9,20,4.4z"/>
<path id="instagram_x5F_hover" class="st1" d="M7.8,2h8.4C19.4,2,22,4.6,22,7.8v8.4c0,3.2-2.6,5.8-5.8,5.8H7.8C4.6,22,2,19.4,2,16.2
	V7.8C2,4.6,4.6,2,7.8,2 M7.6,4C5.6,4,4,5.6,4,7.6l0,0v8.8c0,2,1.6,3.6,3.6,3.6h8.8c2,0,3.6-1.6,3.6-3.6l0,0V7.6c0-2-1.6-3.6-3.6-3.6
	H7.6 M17.2,5.5c0.7,0,1.2,0.6,1.2,1.2S17.9,8,17.2,8S16,7.4,16,6.8S16.6,5.5,17.2,5.5 M12,7c2.8,0,5,2.2,5,5s-2.2,5-5,5s-5-2.2-5-5
	S9.2,7,12,7 M12,9c-1.7,0-3,1.3-3,3s1.3,3,3,3s3-1.3,3-3S13.7,9,12,9z"/>
<path id="instagram" class="st3" d="M7.8,2h8.4C19.4,2,22,4.6,22,7.8v8.4c0,3.2-2.6,5.8-5.8,5.8H7.8C4.6,22,2,19.4,2,16.2V7.8
	C2,4.6,4.6,2,7.8,2 M7.6,4C5.6,4,4,5.6,4,7.6l0,0v8.8c0,2,1.6,3.6,3.6,3.6h8.8c2,0,3.6-1.6,3.6-3.6l0,0V7.6c0-2-1.6-3.6-3.6-3.6H7.6
	 M17.2,5.5c0.7,0,1.2,0.6,1.2,1.2S17.9,8,17.2,8S16,7.4,16,6.8S16.6,5.5,17.2,5.5 M12,7c2.8,0,5,2.2,5,5s-2.2,5-5,5s-5-2.2-5-5
	S9.2,7,12,7 M12,9c-1.7,0-3,1.3-3,3s1.3,3,3,3s3-1.3,3-3S13.7,9,12,9z"/>
<path id="twitter_x5F_hover" class="st1" d="M22.5,5.5c-0.8,0.3-1.6,0.6-2.5,0.7c0.9-0.5,1.6-1.4,1.9-2.4C21,4.3,20,4.6,19.1,4.9
	c-0.8-0.9-1.9-1.4-3.2-1.4c-2.4,0-4.3,1.9-4.3,4.3c0,0.3,0,0.7,0.1,1C8.2,8.6,5,6.9,2.9,4.3C2.5,4.9,2.3,5.7,2.3,6.4
	c0,1.5,0.8,2.8,1.9,3.6c-0.7,0-1.4-0.2-1.9-0.5l0,0c0,2.1,1.5,3.8,3.4,4.2c-0.4,0.1-0.7,0.2-1.1,0.2c-0.3,0-0.5,0-0.8-0.1
	c0.5,1.7,2.1,2.9,4,3c-1.5,1.2-3.3,1.8-5.3,1.8c-0.3,0-0.7,0-1-0.1c1.8,1.3,4.1,2,6.5,2c7.9,0,12.2-6.5,12.2-12.2c0-0.2,0-0.4,0-0.6
	C21.2,7.1,21.8,6.4,22.5,5.5z"/>
<path id="twitter" class="st4" d="M22.5,5.5c-0.8,0.3-1.6,0.6-2.5,0.7c0.9-0.5,1.6-1.4,1.9-2.4C21,4.3,20,4.6,19.1,4.9
	c-0.8-0.9-1.9-1.4-3.2-1.4c-2.4,0-4.3,1.9-4.3,4.3c0,0.3,0,0.7,0.1,1C8.2,8.6,5,6.9,2.9,4.3C2.5,4.9,2.3,5.7,2.3,6.4
	c0,1.5,0.8,2.8,1.9,3.6c-0.7,0-1.4-0.2-1.9-0.5l0,0c0,2.1,1.5,3.8,3.4,4.2c-0.4,0.1-0.7,0.2-1.1,0.2c-0.3,0-0.5,0-0.8-0.1
	c0.5,1.7,2.1,2.9,4,3c-1.5,1.2-3.3,1.8-5.3,1.8c-0.3,0-0.7,0-1-0.1c1.8,1.3,4.1,2,6.5,2c7.9,0,12.2-6.5,12.2-12.2c0-0.2,0-0.4,0-0.6
	C21.2,7.1,21.8,6.4,22.5,5.5z"/>
<path id="facebook_x5F_hover" class="st1" d="M19,3H5C3.9,3,3,3.9,3,5v14c0,1.1,0.9,2,2,2h7v-7h-2v-3h2V8.5C12,6.6,13.6,5,15.5,5H18
	v3h-2c-0.6,0-1,0.4-1,1v2h3v3h-3v7h4c1.1,0,2-0.9,2-2V5C21,3.9,20.1,3,19,3z"/>
<path id="facebook" class="st2" d="M19,3H5C3.9,3,3,3.9,3,5v14c0,1.1,0.9,2,2,2h7v-7h-2v-3h2V8.5C12,6.6,13.6,5,15.5,5H18v3h-2
	c-0.6,0-1,0.4-1,1v2h3v3h-3v7h4c1.1,0,2-0.9,2-2V5C21,3.9,20.1,3,19,3z"/>
<path id="github_1_" class="st1" d="M12,2.2c-5.5,0-10,4.5-10,10c0,4.4,2.9,8.2,6.8,9.5c0.5,0.1,0.7-0.2,0.7-0.5c0-0.2,0-0.9,0-1.7
	c-2.8,0.6-3.4-1.3-3.4-1.3C5.7,17,5,16.7,5,16.7c-0.9-0.6,0.1-0.6,0.1-0.6c1,0.1,1.5,1,1.5,1C7.5,18.7,9,18.2,9.5,18
	c0.1-0.6,0.4-1.1,0.6-1.3c-2.2-0.2-4.6-1.1-4.6-4.9c0-1.1,0.4-2,1-2.7c0.1-0.4-0.3-1.4,0.3-2.7c0,0,0.8-0.3,2.8,1
	c0.8-0.2,1.6-0.3,2.5-0.3s1.7,0.1,2.5,0.3c1.9-1.3,2.8-1,2.8-1c0.5,1.3,0.2,2.4,0.1,2.6c0.6,0.7,1,1.6,1,2.7c0,3.8-2.3,4.7-4.6,4.9
	c0.4,0.3,0.7,0.9,0.7,1.9c0,1.3,0,2.4,0,2.7c0,0.3,0.2,0.6,0.7,0.5c4-1.3,6.8-5.1,6.8-9.5C22,6.7,17.5,2.2,12,2.2z"/>
<path id="github" class="st2" d="M12,2.2c-5.5,0-10,4.5-10,10c0,4.4,2.9,8.2,6.8,9.5c0.5,0.1,0.7-0.2,0.7-0.5c0-0.2,0-0.9,0-1.7
	c-2.8,0.6-3.4-1.3-3.4-1.3C5.7,17,5,16.7,5,16.7c-0.9-0.6,0.1-0.6,0.1-0.6c1,0.1,1.5,1,1.5,1C7.5,18.7,9,18.2,9.5,18
	c0.1-0.6,0.4-1.1,0.6-1.3c-2.2-0.2-4.6-1.1-4.6-4.9c0-1.1,0.4-2,1-2.7c0.1-0.4-0.3-1.4,0.3-2.7c0,0,0.8-0.3,2.8,1
	c0.8-0.2,1.6-0.3,2.5-0.3s1.7,0.1,2.5,0.3c1.9-1.3,2.8-1,2.8-1c0.5,1.3,0.2,2.4,0.1,2.6c0.6,0.7,1,1.6,1,2.7c0,3.8-2.3,4.7-4.6,4.9
	c0.4,0.3,0.7,0.9,0.7,1.9c0,1.3,0,2.4,0,2.7c0,0.3,0.2,0.6,0.7,0.5c4-1.3,6.8-5.1,6.8-9.5C22,6.7,17.5,2.2,12,2.2z"/>
<path id="mail_x5F_hover" class="st1" d="M20,4H4C2.9,4,2,4.9,2,6v12c0,1.1,0.9,2,2,2h16c1.1,0,2-0.9,2-2V6C22,4.9,21.1,4,20,4z
	 M20,8l-8,5L4,8V6l8,5l8-5V8z"/>
<path id="mail" class="st2" d="M20,4H4C2.9,4,2,4.9,2,6v12c0,1.1,0.9,2,2,2h16c1.1,0,2-0.9,2-2V6C22,4.9,21.1,4,20,4z M20,8l-8,5
	L4,8V6l8,5l8-5V8z"/>
<path id="linkedin" class="st1" d="M2,4.7c0-0.6,0.2-1.2,0.7-1.6c0.4-0.4,1-0.6,1.7-0.6s1.3,0.2,1.7,0.6c0.4,0.4,0.7,1,0.7,1.7
	c0,0.6-0.2,1.1-0.7,1.5c-0.4,0.4-1,0.6-1.8,0.6l0,0C3.6,6.9,3,6.7,2.6,6.3S2,5.3,2,4.7z M2.3,21.5V8.7h4.3v12.8H2.3z M8.9,21.5h4.3
	v-7.2c0-0.4,0.1-0.8,0.2-1c0.2-0.4,0.5-0.8,0.8-1.1c0.4-0.3,0.8-0.5,1.4-0.5c1.4,0,2.2,1,2.2,2.9v6.9H22v-7.4c0-1.9-0.4-3.3-1.3-4.3
	s-2.1-1.5-3.6-1.5c-1.7,0-2.9,0.7-3.9,2.1l0,0l0,0l0,0V8.7H8.9c0,0.4,0,1.7,0,3.8C9,14.6,8.9,17.6,8.9,21.5z"/>
<path id="linkedin_1_" class="st2" d="M2,4.7c0-0.6,0.2-1.2,0.7-1.6c0.4-0.4,1-0.6,1.7-0.6s1.3,0.2,1.7,0.6c0.4,0.4,0.7,1,0.7,1.7
	c0,0.6-0.2,1.1-0.7,1.5c-0.4,0.4-1,0.6-1.8,0.6l0,0C3.6,6.9,3,6.7,2.6,6.3S2,5.3,2,4.7z M2.3,21.5V8.7h4.3v12.8H2.3z M8.9,21.5h4.3
	v-7.2c0-0.4,0.1-0.8,0.2-1c0.2-0.4,0.5-0.8,0.8-1.1c0.4-0.3,0.8-0.5,1.4-0.5c1.4,0,2.2,1,2.2,2.9v6.9H22v-7.4c0-1.9-0.4-3.3-1.3-4.3
	s-2.1-1.5-3.6-1.5c-1.7,0-2.9,0.7-3.9,2.1l0,0l0,0l0,0V8.7H8.9c0,0.4,0,1.7,0,3.8C9,14.6,8.9,17.6,8.9,21.5z"/>
</svg>
